<svg xmlns="http://www.w3.org/2000/svg" width="105" height="23" viewBox="0 0 105 23"><rect width="100%" height="100%" fill="#DDDDDD"/><path fill="#999999" d="M33.24 14.725h1.56v1.11H30v-1.11h1.76v-5.06q0-.3.02-.62l-1.25 1.05q-.11.08-.21.1-.11.02-.2.01-.09-.02-.16-.07-.08-.04-.11-.1l-.47-.64 2.65-2.25h1.21zm8.97-3.23q0 1.14-.24 1.97-.24.84-.67 1.39-.43.54-1.01.81-.59.27-1.27.27t-1.25-.27q-.58-.27-1.01-.81-.43-.55-.67-1.39-.24-.83-.24-1.97t.24-1.97q.24-.84.67-1.38.43-.55 1.01-.82.57-.26 1.25-.26t1.27.26q.58.27 1.01.82.43.54.67 1.38.24.83.24 1.97m-1.53 0q0-.94-.13-1.56-.14-.62-.37-.98-.23-.37-.53-.52-.3-.14-.63-.14-.32 0-.61.14-.3.15-.53.52-.23.36-.36.98-.14.62-.14 1.56t.14 1.56q.13.62.36.99.23.36.53.51.29.15.61.15.33 0 .63-.15t.53-.51q.23-.37.37-.99.13-.62.13-1.56m4.58-2.99-.31 1.8q.29-.06.55-.08.27-.03.51-.03.69 0 1.21.2.52.21.87.57.36.36.54.84t.18 1.04q0 .69-.24 1.26-.25.57-.68.98-.43.4-1.02.62-.59.23-1.29.23-.41 0-.77-.09-.37-.08-.69-.22t-.59-.33q-.28-.18-.49-.38l.45-.63q.15-.21.38-.21.15 0 .31.1l.35.21q.2.11.48.21.27.09.65.09.41 0 .72-.13.32-.13.52-.37.21-.23.32-.56.1-.33.1-.71 0-.71-.41-1.11t-1.22-.4q-.61 0-1.26.23l-.93-.26.72-4.22h4.29v.63q0 .32-.2.52t-.67.2zm13.44 5.34-.78.78-2.04-2.04-2.05 2.05-.79-.77 2.06-2.06-1.96-1.96.78-.78 1.96 1.96 1.94-1.95.79.78-1.95 1.95zm7.23.61h2.22q.24 0 .38.13.14.14.14.36v.89h-5.95v-.49q0-.15.07-.32.06-.16.2-.29l2.63-2.64q.33-.34.59-.65.26-.3.44-.6.17-.3.26-.61.1-.31.1-.65 0-.31-.09-.55t-.26-.4q-.16-.16-.39-.24-.24-.08-.52-.08-.27 0-.49.07-.23.08-.4.21-.18.14-.3.32t-.18.39q-.1.28-.26.37t-.47.04l-.78-.14q.09-.62.35-1.09t.65-.79q.38-.31.88-.47t1.08-.16q.6 0 1.1.17.5.18.85.51.35.32.55.78.2.45.2 1.01 0 .48-.14.89t-.38.78-.55.72q-.32.35-.67.71l-1.96 1.99q.29-.08.57-.12.27-.05.53-.05m4.72-4.74-.78-.14q.09-.62.35-1.09t.65-.79q.38-.31.89-.47.5-.16 1.07-.16.6 0 1.09.17.48.17.82.47.34.31.53.71.18.41.18.89 0 .41-.09.73-.1.31-.27.54-.18.24-.43.4-.26.16-.59.27.78.25 1.17.75.38.5.38 1.27 0 .64-.24 1.14t-.65.84q-.4.34-.94.51-.54.18-1.14.18-.65 0-1.14-.15-.48-.15-.84-.45-.36-.29-.62-.72-.25-.42-.43-.98l.66-.27q.25-.11.48-.06.22.05.33.24.1.21.23.42.13.2.31.36t.43.26q.24.1.57.1.38 0 .66-.13.29-.12.48-.32.18-.19.28-.44.09-.24.09-.49 0-.31-.07-.56-.06-.26-.27-.44t-.6-.28q-.4-.1-1.06-.1v-1.06q.55 0 .91-.1t.57-.27.3-.41q.08-.24.08-.53 0-.61-.34-.93-.34-.31-.91-.31-.27 0-.49.07-.22.08-.4.21-.17.14-.29.32t-.18.39q-.11.28-.27.37-.17.09-.47.04"/></svg>