<svg xmlns="http://www.w3.org/2000/svg" width="122" height="22" viewBox="0 0 122 22"><rect width="100%" height="100%" fill="#DDDDDD"/><path fill="#999999" d="M43.34 14h1.43v1.02h-4.4V14h1.61V9.37q0-.28.02-.57l-1.15.96q-.1.07-.19.09-.1.02-.18.01-.09-.02-.15-.06-.07-.04-.1-.09l-.43-.59 2.42-2.06h1.12zm5.47-.24h2.04q.22 0 .35.12t.13.33v.81h-5.46v-.45q0-.14.06-.29t.19-.27l2.41-2.42q.3-.31.54-.59t.4-.56q.16-.27.25-.55.08-.29.08-.6 0-.29-.08-.5-.08-.22-.23-.37-.16-.15-.37-.22-.21-.08-.47-.08-.25 0-.45.07-.21.07-.37.19-.16.13-.27.29-.11.17-.16.37-.1.25-.24.33-.15.08-.43.04l-.72-.13q.08-.57.32-1t.59-.72q.36-.29.82-.44.46-.14.98-.14.55 0 1.01.16t.78.46q.33.3.51.72.18.41.18.93 0 .44-.13.81t-.35.71q-.21.35-.51.66-.29.32-.61.65l-1.79 1.83q.26-.07.52-.11.25-.04.48-.04m6.38 0h2.04q.22 0 .35.12t.13.33v.81h-5.46v-.45q0-.14.06-.29t.19-.27l2.41-2.42q.3-.31.54-.59t.4-.56q.16-.27.25-.55.08-.29.08-.6 0-.29-.08-.5-.08-.22-.23-.37-.16-.15-.37-.22-.21-.08-.47-.08-.25 0-.45.07-.21.07-.37.19-.16.13-.27.29-.11.17-.16.37-.1.25-.24.33-.15.08-.43.04l-.72-.13q.08-.57.32-1t.59-.72q.36-.29.82-.44.46-.14.98-.14.55 0 1.01.16t.78.46q.33.3.51.72.18.41.18.93 0 .44-.13.81t-.35.71q-.21.35-.51.66-.29.32-.61.65l-1.79 1.83q.26-.07.52-.11.25-.04.48-.04m11.49-.56-.72.71-1.87-1.87-1.88 1.88-.72-.71 1.88-1.89-1.79-1.79.71-.71 1.8 1.79 1.78-1.78.72.71-1.78 1.79zm6.62.56h2.04q.22 0 .35.12t.13.33v.81h-5.46v-.45q0-.14.06-.29t.18-.27l2.42-2.42q.3-.31.54-.59t.4-.56q.16-.27.24-.55.09-.29.09-.6 0-.29-.08-.5-.09-.22-.24-.37t-.36-.22q-.21-.08-.48-.08-.24 0-.45.07-.2.07-.36.19-.16.13-.27.29-.11.17-.17.37-.09.25-.24.33t-.43.04l-.71-.13q.08-.57.32-1 .23-.43.59-.72.35-.29.81-.44.46-.14.99-.14.55 0 1.01.16.45.16.78.46.32.3.5.72.18.41.18.93 0 .44-.12.81-.13.37-.35.71-.22.35-.51.66-.29.32-.61.65l-1.79 1.83q.26-.07.51-.11.26-.04.49-.04m6.38 0h2.04q.22 0 .35.12t.13.33v.81h-5.46v-.45q0-.14.06-.29t.18-.27l2.42-2.42q.3-.31.54-.59t.4-.56q.16-.27.24-.55.09-.29.09-.6 0-.29-.08-.5-.09-.22-.24-.37t-.36-.22q-.21-.08-.48-.08-.24 0-.45.07-.2.07-.36.19-.16.13-.27.29-.11.17-.17.37-.09.25-.24.33t-.43.04l-.71-.13q.08-.57.32-1 .23-.43.59-.72.35-.29.81-.44.46-.14.99-.14.55 0 1.01.16.45.16.78.46.32.3.5.72.18.41.18.93 0 .44-.12.81-.13.37-.35.71-.22.35-.51.66-.29.32-.61.65l-1.79 1.83q.26-.07.51-.11.26-.04.49-.04"/></svg>