<svg xmlns="http://www.w3.org/2000/svg" width="136" height="136" viewBox="0 0 136 136"><rect width="100%" height="100%" fill="#DDDDDD"/><path fill="#999999" d="M33.765 72.84h2.34v1.67h-7.2v-1.67h2.64v-7.58q0-.45.03-.93l-1.88 1.57q-.16.12-.32.15-.15.04-.29.01t-.25-.1q-.11-.06-.16-.14l-.7-.97 3.96-3.37h1.83zm5.61-7.51-1.17-.21q.13-.93.52-1.64t.97-1.18 1.33-.71 1.62-.24q.9 0 1.62.26.72.25 1.24.71.51.45.78 1.07.28.61.28 1.32 0 .62-.14 1.09t-.4.83q-.26.35-.65.59t-.87.4q1.17.37 1.74 1.13.58.76.58 1.9 0 .97-.36 1.72-.36.74-.97 1.25t-1.42.77q-.8.26-1.71.26-.98 0-1.71-.22-.72-.23-1.26-.67t-.92-1.08-.65-1.47l.98-.41q.39-.16.73-.08.33.07.49.36.16.32.35.62.2.31.47.55.27.23.63.38t.87.15q.56 0 .99-.18.42-.19.7-.48.29-.3.43-.67.14-.36.14-.73 0-.47-.1-.85t-.42-.65q-.31-.27-.9-.43-.59-.15-1.58-.15v-1.58q.82-.01 1.36-.16.54-.14.86-.4.32-.25.44-.61.13-.36.13-.79 0-.92-.51-1.4-.52-.48-1.37-.48-.4 0-.73.12-.33.11-.6.31-.26.2-.44.47t-.27.6q-.16.41-.4.55-.25.13-.7.06m16.86-3.83-3.87 4.72-.45.56q.38-.19.82-.29.44-.11.94-.11.74 0 1.43.25.7.24 1.23.73t.86 1.22q.32.73.32 1.7 0 .91-.33 1.71-.33.79-.94 1.39-.6.59-1.45.93t-1.88.34q-1.04 0-1.87-.33t-1.41-.93q-.59-.6-.9-1.44t-.31-1.87q0-.92.38-1.88.37-.97 1.15-2.02l3.11-4.16q.16-.22.47-.37t.72-.15zm-3.36 11.34q.53 0 .97-.18.45-.18.77-.51.32-.32.5-.76t.18-.95q0-.56-.17-1-.17-.45-.49-.76-.31-.31-.75-.47t-.98-.16q-.53 0-.96.18t-.74.5q-.3.32-.47.75-.17.44-.17.94 0 .54.14.99.15.44.44.76.3.31.73.49t1 .18m19.08-1.31-1.18 1.16-3.05-3.05-3.08 3.07-1.18-1.16 3.08-3.09-2.93-2.93 1.17-1.17 2.93 2.93 2.92-2.91 1.18 1.17-2.92 2.92zm12.32 1.31h2.34v1.67h-7.2v-1.67h2.64v-7.58q0-.45.02-.93l-1.87 1.57q-.16.12-.32.15-.16.04-.3.01-.13-.03-.24-.1-.11-.06-.16-.14l-.71-.97 3.97-3.37h1.83zm5.61-7.51-1.17-.21q.13-.93.52-1.64t.97-1.18 1.33-.71 1.61-.24q.9 0 1.63.26.72.25 1.24.71.51.45.78 1.07.28.61.28 1.32 0 .62-.14 1.09t-.4.83q-.26.35-.65.59t-.87.4q1.17.37 1.74 1.13.58.76.58 1.9 0 .97-.36 1.72-.36.74-.97 1.25-.62.51-1.42.77-.81.26-1.71.26-.98 0-1.71-.22-.73-.23-1.27-.67t-.91-1.08q-.38-.64-.65-1.47l.98-.41q.39-.16.72-.08.34.07.49.36.17.32.36.62.19.31.46.55.27.23.64.38.36.15.87.15.56 0 .99-.18.42-.19.7-.48.29-.3.43-.67.14-.36.14-.73 0-.47-.1-.85t-.42-.65q-.31-.27-.9-.43-.59-.15-1.58-.15v-1.58q.82-.01 1.36-.16.54-.14.86-.4.32-.25.44-.61.13-.36.13-.79 0-.92-.51-1.4-.52-.48-1.37-.48-.4 0-.73.12-.33.11-.6.31t-.45.47-.27.6q-.15.41-.4.55-.24.13-.69.06m16.85-3.83-3.86 4.72-.45.56q.38-.19.82-.29.43-.11.94-.11.74 0 1.43.25.7.24 1.23.73t.86 1.22q.32.73.32 1.7 0 .91-.33 1.71-.34.79-.94 1.39-.6.59-1.45.93t-1.88.34q-1.04 0-1.87-.33t-1.41-.93q-.59-.6-.9-1.44t-.31-1.87q0-.92.37-1.88.38-.97 1.16-2.02l3.11-4.16q.16-.22.47-.37t.71-.15zm-3.35 11.34q.53 0 .97-.18.45-.18.77-.51.32-.32.5-.76t.18-.95q0-.56-.17-1-.17-.45-.49-.76-.31-.31-.76-.47-.44-.16-.97-.16t-.96.18-.74.5q-.3.32-.48.75-.17.44-.17.94 0 .54.15.99.15.44.44.76.3.31.73.49t1 .18"/></svg>