<svg xmlns="http://www.w3.org/2000/svg" width="148" height="99" viewBox="0 0 148 99"><rect width="100%" height="100%" fill="#DDDDDD"/><path fill="#999999" d="M37.14 55.685h2.99v2.13h-9.2v-2.13h3.37v-9.69q0-.58.04-1.19l-2.39 2q-.21.17-.41.21t-.38 0q-.18-.03-.32-.12t-.21-.19l-.89-1.23 5.07-4.31h2.33zm7.56-4.14h5.06v-5.44q0-.77.1-1.7zm7.53 0h2.09v1.65q0 .23-.15.39-.14.17-.42.17h-1.52v4.06h-2.47v-4.06h-7.02q-.28 0-.5-.18t-.28-.44l-.3-1.44 7.88-10.52h2.69zm9.35 4.23q.7 0 1.23-.2t.89-.55q.36-.36.55-.86.18-.49.18-1.06 0-1.37-.76-2.08-.76-.7-2.09-.7t-2.09.7q-.76.71-.76 2.08 0 .57.18 1.06.19.5.55.86.36.35.89.55t1.23.2m0-12.63q-.63 0-1.09.19-.46.2-.77.52-.3.33-.44.76-.15.42-.15.9 0 .49.12.96.12.46.41.82.29.37.76.58.47.22 1.16.22t1.16-.22q.47-.21.76-.58.29-.36.41-.82.12-.47.12-.96 0-.48-.15-.9-.15-.43-.45-.76-.3-.32-.76-.52-.46-.19-1.09-.19m2.81 6q1.51.49 2.24 1.51.72 1.02.72 2.49 0 1.11-.42 2-.42.9-1.17 1.53-.76.63-1.83.98-1.06.34-2.35.34t-2.35-.34q-1.06-.35-1.82-.98t-1.18-1.53q-.42-.89-.42-2 0-1.47.72-2.49.73-1.02 2.24-1.51-1.2-.51-1.81-1.44-.6-.93-.6-2.24 0-.94.39-1.76.38-.82 1.07-1.42t1.65-.94 2.11-.34 2.11.34 1.65.94 1.08 1.42q.38.82.38 1.76 0 1.31-.6 2.24-.61.93-1.81 1.44m21.55 4.86-1.51 1.49-3.9-3.9-3.93 3.92-1.51-1.48 3.94-3.95-3.75-3.75 1.49-1.49 3.75 3.75 3.73-3.73 1.52 1.5-3.74 3.73zm10.62-7.83q0 1.39.72 2.12t2.04.73q.69 0 1.23-.21.54-.22.91-.6t.56-.9.19-1.12q0-.67-.21-1.21-.2-.53-.58-.9t-.91-.56q-.52-.2-1.14-.2-.64 0-1.16.21-.52.22-.89.59-.37.38-.56.91-.2.52-.2 1.14m-1.39 11.64 5.17-6.45q.19-.24.36-.47.18-.23.34-.46-.58.37-1.27.55-.69.19-1.45.19-.86 0-1.69-.29-.83-.3-1.47-.91-.64-.6-1.04-1.49t-.4-2.09q0-1.12.42-2.09.41-.98 1.16-1.72.75-.73 1.79-1.16 1.05-.42 2.31-.42 1.28 0 2.3.4t1.74 1.13q.71.72 1.1 1.73.38 1.01.38 2.22 0 .77-.13 1.46t-.37 1.33-.59 1.25q-.34.61-.77 1.21l-3.81 5.42q-.19.28-.58.47t-.89.19zm14.73-11.64q0 1.39.72 2.12t2.04.73q.69 0 1.23-.21.54-.22.91-.6t.56-.9.19-1.12q0-.67-.21-1.21-.2-.53-.58-.9t-.91-.56q-.52-.2-1.14-.2-.64 0-1.16.21-.52.22-.89.59-.37.38-.56.91-.2.52-.2 1.14m-1.39 11.64 5.17-6.45q.19-.24.36-.47.18-.23.34-.46-.58.37-1.27.55-.69.19-1.45.19-.86 0-1.69-.29-.83-.3-1.47-.91-.64-.6-1.04-1.49t-.4-2.09q0-1.12.42-2.09.41-.98 1.16-1.72.75-.73 1.79-1.16 1.05-.42 2.31-.42 1.28 0 2.3.4t1.74 1.13q.71.72 1.1 1.73.38 1.01.38 2.22 0 .77-.13 1.46t-.37 1.33-.59 1.25q-.34.61-.77 1.21l-3.81 5.42q-.19.28-.58.47t-.89.19z"/></svg>