<svg xmlns="http://www.w3.org/2000/svg" width="150" height="50" viewBox="0 0 150 50"><rect width="100%" height="100%" fill="#DDDDDD"/><path fill="#999999" d="M37.835 31.185h2.99v2.13h-9.2v-2.13h3.37v-9.69q0-.58.04-1.19l-2.39 2q-.21.17-.41.21t-.38 0q-.18-.03-.32-.12t-.21-.19l-.89-1.23 5.07-4.31h2.33zm9.69-11.92-.59 3.46q.55-.12 1.06-.17.5-.05.98-.05 1.31 0 2.31.39t1.68 1.08q.67.69 1.02 1.62.34.92.34 1.99 0 1.33-.46 2.42-.47 1.09-1.3 1.87-.82.77-1.96 1.2-1.13.42-2.46.42-.78 0-1.49-.16-.7-.16-1.31-.43-.62-.27-1.14-.62t-.94-.74l.88-1.21q.27-.39.72-.39.29 0 .59.18.3.19.68.41.39.22.91.4t1.26.18q.78 0 1.38-.25t.99-.71q.4-.45.6-1.08.2-.62.2-1.36 0-1.36-.79-2.12-.78-.77-2.32-.77-1.19 0-2.43.44l-1.77-.51 1.38-8.07h8.21v1.21q0 .61-.38.99t-1.29.38zm20.85 5.74q0 2.17-.47 3.77-.47 1.61-1.29 2.65-.82 1.05-1.94 1.56t-2.42.51-2.41-.51-1.93-1.56q-.81-1.04-1.27-2.65-.46-1.6-.46-3.77 0-2.19.46-3.79t1.27-2.64q.82-1.05 1.93-1.56t2.41-.51 2.42.51 1.94 1.56q.82 1.04 1.29 2.64t.47 3.79m-2.94 0q0-1.81-.26-2.99-.27-1.19-.71-1.89t-1.02-.98q-.57-.29-1.19-.29-.61 0-1.18.29-.57.28-1.01.98-.43.7-.69 1.89-.26 1.18-.26 2.99 0 1.8.26 2.99.26 1.18.69 1.88.44.7 1.01.98.57.29 1.18.29.62 0 1.19-.29.58-.28 1.02-.98t.71-1.88q.26-1.19.26-2.99m21.2 4.5-1.51 1.49-3.9-3.9-3.93 3.92-1.51-1.48 3.94-3.95-3.75-3.75 1.49-1.49 3.75 3.75 3.73-3.73 1.52 1.5-3.74 3.73zm12.08-10.24-.58 3.46q.55-.12 1.06-.17.5-.05.97-.05 1.31 0 2.31.39 1.01.39 1.68 1.08.68.69 1.03 1.62.34.92.34 1.99 0 1.33-.46 2.42-.47 1.09-1.3 1.87-.83.77-1.96 1.2-1.13.42-2.46.42-.79 0-1.49-.16t-1.31-.43q-.62-.27-1.14-.62-.53-.35-.94-.74l.87-1.21q.28-.39.73-.39.29 0 .58.18.3.19.69.41.38.22.91.4.52.18 1.26.18.78 0 1.38-.25.59-.25.99-.71.4-.45.6-1.08.2-.62.2-1.36 0-1.36-.79-2.12-.79-.77-2.33-.77-1.18 0-2.42.44l-1.77-.51 1.38-8.07h8.21v1.21q0 .61-.38.99t-1.29.38zm20.85 5.74q0 2.17-.46 3.77-.47 1.61-1.29 2.65-.82 1.05-1.94 1.56t-2.42.51-2.41-.51-1.93-1.56q-.82-1.04-1.28-2.65-.46-1.6-.46-3.77 0-2.19.46-3.79t1.28-2.64q.82-1.05 1.93-1.56t2.41-.51 2.42.51 1.94 1.56q.82 1.04 1.29 2.64.46 1.6.46 3.79m-2.93 0q0-1.81-.26-2.99-.27-1.19-.71-1.89t-1.02-.98q-.57-.29-1.19-.29-.61 0-1.18.29-.57.28-1.01.98t-.69 1.89q-.26 1.18-.26 2.99 0 1.8.26 2.99.25 1.18.69 1.88t1.01.98q.57.29 1.18.29.62 0 1.19-.29.58-.28 1.02-.98t.71-1.88q.26-1.19.26-2.99"/></svg>