<svg xmlns="http://www.w3.org/2000/svg" width="190" height="35" viewBox="0 0 190 35"><rect width="100%" height="100%" fill="#DDDDDD"/><path fill="#999999" d="M66.19 22.34h2.34v1.67h-7.2v-1.67h2.64v-7.58q0-.45.02-.93l-1.87 1.57q-.16.12-.32.15-.15.04-.29.01t-.25-.1q-.11-.06-.16-.14l-.71-.97 3.97-3.37h1.83zm6.44-7.44q0 1.09.56 1.66t1.6.57q.54 0 .96-.17t.71-.47q.29-.29.44-.7.14-.4.14-.87 0-.53-.16-.95t-.46-.71q-.29-.28-.7-.44-.41-.15-.9-.15-.5 0-.91.17-.4.16-.69.46t-.44.71-.15.89m-1.09 9.11 4.04-5.05.29-.37.26-.36q-.45.29-.99.44t-1.14.15q-.67 0-1.32-.24-.65-.23-1.15-.7-.51-.48-.82-1.17-.31-.7-.31-1.64 0-.87.33-1.64.32-.76.91-1.34.58-.57 1.4-.91.82-.33 1.81-.33 1 0 1.79.32.8.31 1.36.88.57.57.87 1.36t.3 1.73q0 .61-.1 1.15-.11.54-.3 1.04t-.46.97q-.27.48-.6.95l-2.98 4.25q-.15.21-.46.36-.3.15-.69.15zm18.55-6.51q0 1.7-.37 2.96-.36 1.25-1.01 2.07-.64.82-1.52 1.22-.87.4-1.89.4t-1.89-.4-1.5-1.22q-.64-.82-1-2.07-.36-1.26-.36-2.96 0-1.71.36-2.96t1-2.07q.63-.82 1.5-1.22t1.89-.4 1.89.4q.88.4 1.52 1.22.65.82 1.01 2.07.37 1.25.37 2.96m-2.3 0q0-1.41-.21-2.34-.2-.92-.55-1.47t-.8-.77-.93-.22-.92.22q-.45.22-.79.77t-.55 1.47q-.2.93-.2 2.34 0 1.42.2 2.34.21.93.55 1.48t.79.77q.44.22.92.22t.93-.22.8-.77.55-1.48q.21-.92.21-2.34m16.59 3.53-1.18 1.16-3.05-3.05-3.08 3.07-1.18-1.16 3.08-3.09-2.93-2.93 1.17-1.17 2.93 2.93 2.92-2.91 1.18 1.17-2.92 2.92zm7.49-6.2-1.17-.21q.13-.93.52-1.64t.97-1.18 1.33-.71 1.61-.24q.9 0 1.63.26.72.25 1.24.71.51.45.78 1.07.28.61.28 1.32 0 .62-.14 1.09t-.4.83q-.26.35-.65.59t-.87.4q1.17.37 1.74 1.13.58.76.58 1.9 0 .97-.36 1.72-.36.74-.97 1.25-.62.51-1.42.77-.81.26-1.71.26-.98 0-1.71-.22-.73-.23-1.27-.67t-.91-1.08q-.38-.64-.65-1.47l.98-.41q.39-.16.72-.08.34.07.49.36.17.32.36.62.19.31.46.55.27.23.64.38.36.15.87.15.56 0 .99-.18.42-.19.7-.48.29-.3.43-.67.14-.36.14-.73 0-.47-.1-.85t-.42-.65q-.31-.27-.9-.43-.59-.15-1.58-.15v-1.58q.82-.01 1.36-.16.54-.14.86-.4.32-.25.44-.61.13-.36.13-.79 0-.92-.51-1.4-.52-.48-1.37-.48-.4 0-.73.12-.33.11-.6.31t-.45.47-.27.6q-.15.41-.4.55-.24.13-.69.06m12.41-1.82-.46 2.71q.43-.09.83-.13.39-.04.76-.04 1.03 0 1.81.31.78.3 1.31.84.54.54.81 1.27.27.72.27 1.56 0 1.03-.37 1.89-.36.85-1.01 1.46t-1.54.94q-.88.33-1.93.33-.61 0-1.16-.12-.55-.13-1.03-.34t-.89-.49q-.41-.27-.73-.58l.68-.94q.22-.31.57-.31.22 0 .46.15.23.14.53.31t.71.32q.41.14.99.14.61 0 1.08-.2t.78-.55q.31-.36.47-.85.15-.49.15-1.06 0-1.07-.61-1.66-.62-.6-1.83-.6-.92 0-1.89.34l-1.39-.4 1.08-6.31h6.43v.94q0 .48-.3.77-.3.3-1.01.3z"/></svg>