<svg xmlns="http://www.w3.org/2000/svg" width="230" height="75" viewBox="0 0 230 75"><rect width="100%" height="100%" fill="#DDDDDD"/><path fill="#999999" d="M56.58 46.125h6.49q.7 0 1.11.4.41.39.41 1.04v2.59H47.23v-1.44q0-.43.19-.91.18-.49.58-.87l7.69-7.7q.96-.98 1.72-1.87.76-.9 1.27-1.77.51-.88.78-1.78t.27-1.9q0-.91-.26-1.6-.27-.69-.75-1.16t-1.15-.71-1.52-.24q-.76 0-1.42.22t-1.16.62q-.51.39-.86.91-.35.53-.53 1.16-.29.8-.77 1.07-.47.26-1.36.12l-2.28-.4q.26-1.82 1.02-3.2.75-1.37 1.88-2.29t2.59-1.38q1.46-.47 3.14-.47 1.75 0 3.2.52t2.49 1.46q1.03.95 1.61 2.28t.58 2.95q0 1.4-.42 2.59-.41 1.19-1.1 2.28-.69 1.08-1.62 2.1-.93 1.01-1.94 2.06l-5.7 5.83q.82-.24 1.63-.37.81-.14 1.55-.14m13.79-13.82-2.28-.4q.27-1.82 1.02-3.2.75-1.37 1.88-2.29t2.59-1.38q1.46-.47 3.14-.47 1.75 0 3.16.5t2.41 1.39q.99.88 1.53 2.07.53 1.19.53 2.57 0 1.21-.27 2.13t-.78 1.6-1.26 1.15q-.75.48-1.7.79 2.28.72 3.4 2.19t1.12 3.69q0 1.89-.7 3.34-.7 1.46-1.89 2.45-1.19.98-2.76 1.49-1.56.51-3.31.51-1.91 0-3.33-.44t-2.47-1.29q-1.05-.86-1.78-2.1-.74-1.25-1.26-2.87l1.91-.79q.75-.32 1.41-.17.65.15.95.71.31.61.69 1.21.38.59.9 1.06.53.46 1.24.75.7.29 1.68.29 1.11 0 1.93-.36t1.37-.94q.55-.57.83-1.28.27-.71.27-1.43 0-.91-.2-1.65-.19-.75-.8-1.27-.61-.53-1.76-.82-1.15-.3-3.07-.3v-3.08q1.59-.02 2.64-.3t1.67-.78.87-1.2q.24-.7.24-1.54 0-1.78-.99-2.71-1-.93-2.66-.93-.77 0-1.42.22t-1.16.62q-.52.39-.87.91-.35.53-.53 1.16-.29.8-.77 1.07-.49.26-1.36.12m35.56 5.2q0 3.3-.71 5.75-.71 2.44-1.96 4.03t-2.96 2.37q-1.7.78-3.68.78t-3.67-.78-2.93-2.37-1.94-4.03q-.7-2.45-.7-5.75 0-3.33.7-5.76t1.94-4.03q1.24-1.59 2.93-2.37t3.67-.78 3.68.78q1.71.78 2.96 2.37 1.25 1.6 1.96 4.03t.71 5.76m-4.46 0q0-2.75-.41-4.55-.4-1.81-1.07-2.87-.68-1.07-1.55-1.5-.88-.43-1.82-.43-.93 0-1.79.43-.87.43-1.54 1.5-.66 1.06-1.05 2.87-.4 1.8-.4 4.55 0 2.74.4 4.55.39 1.8 1.05 2.87.67 1.06 1.54 1.49.86.43 1.79.43.94 0 1.82-.43.87-.43 1.55-1.49.67-1.07 1.07-2.87.41-1.81.41-4.55m32.25 6.86-2.29 2.25-5.94-5.93-5.98 5.97-2.29-2.26 5.98-6-5.7-5.71 2.27-2.27 5.71 5.7 5.67-5.67 2.31 2.28-5.69 5.69zm12.02-19.52h17.49v1.88q0 .84-.18 1.35-.18.52-.35.87l-9.59 19.74q-.3.61-.84 1.04t-1.45.43h-3.13l9.78-19.34q.33-.59.65-1.09.33-.5.73-.96h-12.11q-.4 0-.7-.29-.3-.3-.3-.7zm26.67 3.92-.89 5.27q.84-.17 1.61-.25t1.49-.08q1.99 0 3.52.59 1.52.6 2.55 1.65t1.56 2.46q.52 1.41.52 3.03 0 2.02-.71 3.68-.7 1.66-1.96 2.84t-2.99 1.83q-1.72.65-3.75.65-1.19 0-2.26-.24-1.07-.25-2-.66-.94-.41-1.74-.95-.79-.53-1.42-1.13l1.33-1.83q.42-.6 1.1-.6.44 0 .89.28.46.28 1.04.61.59.34 1.39.62.79.28 1.91.28 1.19 0 2.1-.39.91-.38 1.52-1.07.6-.7.91-1.65.3-.95.3-2.07 0-2.07-1.2-3.23-1.19-1.17-3.54-1.17-1.8 0-3.69.67l-2.7-.77 2.1-12.29h12.5v1.84q0 .93-.58 1.51-.58.57-1.96.57z"/></svg>