<svg xmlns="http://www.w3.org/2000/svg" width="243" height="162" viewBox="0 0 243 162"><rect width="100%" height="100%" fill="#DDDDDD"/><path fill="#999999" d="M56.695 89.13h6.12q.66 0 1.05.38.38.37.38.98v2.44h-16.37v-1.35q0-.42.18-.87.17-.45.55-.82l7.24-7.26q.91-.92 1.63-1.76t1.2-1.67q.47-.82.73-1.67t.26-1.79q0-.86-.25-1.51t-.7-1.1q-.46-.45-1.09-.67-.64-.22-1.43-.22-.73 0-1.34.21-.62.2-1.1.57t-.81.87q-.33.49-.49 1.09-.29.76-.73 1-.45.25-1.29.12l-2.14-.38q.24-1.72.95-3.01.71-1.3 1.78-2.16 1.06-.87 2.44-1.31 1.38-.43 2.96-.43 1.65 0 3.02.48 1.37.49 2.34 1.38.98.89 1.52 2.15.55 1.25.55 2.79 0 1.32-.39 2.44t-1.04 2.14q-.65 1.03-1.53 1.98-.87.96-1.83 1.95l-5.38 5.49q.78-.23 1.55-.35.76-.13 1.46-.13m13.56-5.19h7.26v-7.81q0-1.1.15-2.44zm10.81 0h3v2.36q0 .33-.22.57-.21.24-.61.24h-2.17v5.82h-3.55v-5.82h-10.07q-.41 0-.72-.26-.32-.26-.4-.64l-.43-2.06 11.31-15.1h3.86zm7.77-7.84-2.15-.38q.25-1.72.96-3.01.71-1.3 1.77-2.16 1.07-.87 2.45-1.31 1.37-.43 2.96-.43 1.65 0 2.98.47 1.32.47 2.26 1.3t1.45 1.96q.5 1.12.5 2.42 0 1.14-.25 2.01-.26.86-.74 1.51-.48.64-1.19 1.08-.71.45-1.6.75 2.15.67 3.2 2.06 1.06 1.39 1.06 3.48 0 1.78-.66 3.15t-1.78 2.3q-1.12.94-2.6 1.42-1.48.47-3.13.47-1.8 0-3.13-.41-1.34-.41-2.33-1.22t-1.68-1.98q-.7-1.17-1.19-2.71l1.8-.74q.71-.3 1.33-.15.62.14.9.66.29.58.65 1.14.35.56.85 1 .49.44 1.16.71t1.59.27q1.04 0 1.82-.34.77-.33 1.29-.88.52-.54.78-1.21.25-.67.25-1.35 0-.85-.18-1.56-.18-.7-.76-1.19-.57-.5-1.65-.78-1.09-.28-2.9-.28v-2.9q1.5-.02 2.49-.28.99-.27 1.58-.74.58-.47.81-1.13t.23-1.45q0-1.68-.94-2.56-.94-.87-2.5-.87-.73 0-1.34.21-.61.2-1.1.57-.48.37-.81.87-.33.49-.5 1.09-.28.76-.73 1-.46.25-1.28.12m40.59 11.37-2.16 2.13-5.6-5.6-5.64 5.63-2.16-2.13 5.64-5.66-5.38-5.38 2.15-2.14 5.38 5.38 5.34-5.35 2.18 2.15-5.36 5.36zm22.59 2.41h4.29v3.05h-13.2v-3.05h4.83V75.97q0-.83.05-1.7l-3.43 2.87q-.3.23-.59.29t-.54.01q-.26-.05-.46-.18-.19-.12-.29-.27l-1.29-1.76 7.28-6.19h3.35zm22.04-20.81-7.08 8.66-.82 1.03q.69-.35 1.49-.54t1.72-.19q1.36 0 2.64.45 1.27.44 2.25 1.34.97.9 1.57 2.24.59 1.33.59 3.11 0 1.67-.61 3.13t-1.72 2.55q-1.1 1.09-2.66 1.72-1.56.62-3.44.62-1.92 0-3.43-.61-1.52-.61-2.59-1.7-1.08-1.1-1.65-2.64-.57-1.55-.57-3.43 0-1.68.69-3.45.68-1.78 2.12-3.69l5.69-7.64q.3-.4.87-.68t1.31-.28zm-6.15 20.79q.97 0 1.79-.33.81-.33 1.4-.92.58-.6.91-1.4t.33-1.74q0-1.02-.31-1.84-.31-.81-.89-1.38t-1.39-.87q-.8-.3-1.78-.3-.97 0-1.76.33-.8.33-1.36.92-.56.58-.87 1.38t-.31 1.73q0 .99.27 1.81.27.81.81 1.39.53.58 1.32.9.8.32 1.84.32m19.66-.73h6.13q.66 0 1.04.38.39.37.39.98v2.44h-16.37v-1.35q0-.42.18-.87.17-.45.55-.82l7.24-7.26q.91-.92 1.63-1.76t1.19-1.67q.48-.82.74-1.67.25-.85.25-1.79 0-.86-.24-1.51-.25-.65-.7-1.1-.46-.45-1.09-.67-.64-.22-1.43-.22-.73 0-1.35.21-.61.2-1.09.57t-.81.87q-.33.49-.5 1.09-.28.76-.72 1-.45.25-1.29.12l-2.14-.38q.24-1.72.95-3.01.71-1.3 1.78-2.16 1.06-.87 2.44-1.31 1.38-.43 2.96-.43 1.65 0 3.02.48 1.37.49 2.34 1.38.98.89 1.52 2.15.54 1.25.54 2.79 0 1.32-.38 2.44-.39 1.12-1.04 2.14-.65 1.03-1.53 1.98-.87.96-1.83 1.95l-5.38 5.49q.78-.23 1.54-.35.77-.13 1.46-.13"/></svg>