<svg xmlns="http://www.w3.org/2000/svg" width="280" height="24" viewBox="0 0 280 24"><rect width="100%" height="100%" fill="#DDDDDD"/><path fill="#999999" d="M119.785 14.955h2.23q.24 0 .38.13.14.14.14.36v.89h-5.95v-.49q0-.15.06-.32.07-.16.2-.29l2.64-2.64q.33-.34.59-.65.26-.3.43-.6.18-.3.27-.61t.09-.65q0-.31-.09-.55t-.25-.4q-.17-.16-.4-.24t-.52-.08q-.26 0-.48.07-.23.08-.4.21-.18.14-.3.32t-.18.39q-.1.28-.26.37t-.47.04l-.78-.14q.09-.62.35-1.09t.64-.79q.39-.31.89-.47t1.08-.16q.6 0 1.1.17.49.18.85.51.35.32.55.78.2.45.2 1.01 0 .48-.14.89t-.38.78-.56.72q-.31.35-.66.71l-1.96 1.99q.28-.08.56-.12.28-.05.53-.05m6.78.32q.37 0 .65-.11.27-.1.46-.29.19-.18.29-.44.09-.26.09-.56 0-.71-.39-1.08-.4-.37-1.1-.37-.69 0-1.09.37-.39.37-.39 1.08 0 .3.09.56.1.26.29.44.19.19.46.29.28.11.64.11m0-6.6q-.33 0-.57.11-.24.1-.39.27-.16.17-.24.39-.07.22-.07.47 0 .26.06.5t.21.43.4.31q.24.11.6.11t.61-.11q.25-.12.4-.31t.21-.43.06-.5q0-.25-.08-.47-.07-.22-.23-.39t-.4-.27q-.24-.11-.57-.11m1.47 3.14q.79.25 1.17.79.38.53.38 1.29 0 .58-.22 1.05t-.62.8q-.39.33-.95.51-.55.18-1.23.18-.67 0-1.22-.18-.56-.18-.95-.51-.4-.33-.62-.8t-.22-1.05q0-.76.38-1.29.38-.54 1.17-.79-.63-.27-.94-.75-.32-.49-.32-1.17 0-.5.2-.92.2-.43.56-.74.36-.32.86-.5.5-.17 1.1-.17t1.11.17q.5.18.86.5.36.31.56.74.2.42.2.92 0 .68-.32 1.17-.31.48-.94.75m8.67.18q0 1.14-.24 1.97-.24.84-.67 1.39-.43.54-1.01.81-.59.27-1.27.27t-1.25-.27q-.58-.27-1.01-.81-.43-.55-.67-1.39-.24-.83-.24-1.97t.24-1.97q.24-.84.67-1.38.43-.55 1.01-.82.57-.26 1.25-.26t1.27.26q.58.27 1.01.82.43.54.67 1.38.24.83.24 1.97m-1.53 0q0-.94-.13-1.56-.14-.62-.37-.98-.23-.37-.53-.52-.3-.14-.63-.14-.32 0-.61.14-.3.15-.53.52-.23.36-.36.98-.14.62-.14 1.56t.14 1.56q.13.62.36.99.23.36.53.51.29.15.61.15.33 0 .63-.15t.53-.51q.23-.37.37-.99.13-.62.13-1.56m11.06 2.35-.78.78-2.04-2.04-2.05 2.05-.79-.77 2.06-2.06-1.96-1.96.78-.78 1.96 1.96 1.94-1.95.79.78-1.95 1.95zm7.23.61h2.22q.24 0 .38.13.14.14.14.36v.89h-5.95v-.49q0-.15.07-.32.06-.16.2-.29l2.63-2.64q.33-.34.59-.65.26-.3.44-.6.17-.3.26-.61.1-.31.1-.65 0-.31-.09-.55t-.26-.4q-.16-.16-.39-.24-.24-.08-.52-.08-.27 0-.49.07-.23.08-.4.21-.18.14-.3.32t-.18.39q-.1.28-.26.37t-.47.04l-.78-.14q.09-.62.35-1.09t.65-.79q.38-.31.88-.47t1.08-.16q.6 0 1.1.17.5.18.85.51.35.32.55.78.2.45.2 1.01 0 .48-.14.89t-.38.78-.55.72q-.32.35-.67.71l-1.96 1.99q.29-.08.57-.12.27-.05.53-.05m4.93-1.89h2.64v-2.84q0-.4.05-.89zm3.93 0h1.09v.86q0 .12-.08.2-.08.09-.22.09h-.79v2.12h-1.29v-2.12h-3.66q-.15 0-.27-.09-.11-.09-.14-.23l-.16-.75 4.11-5.49h1.41z"/></svg>