<svg xmlns="http://www.w3.org/2000/svg" width="300" height="80" viewBox="0 0 300 80"><rect width="100%" height="100%" fill="#DDDDDD"/><path fill="#999999" d="m75.28 34.06-2.6-.46q.3-2.08 1.16-3.65t2.15-2.62 2.96-1.58 3.59-.53q2 0 3.61.57t2.75 1.58 1.75 2.37.61 2.94q0 1.38-.31 2.43t-.89 1.83-1.44 1.32-1.94.9q2.6.82 3.88 2.5t1.28 4.22q0 2.16-.8 3.82t-2.16 2.79-3.15 1.71-3.79.58q-2.18 0-3.8-.5t-2.82-1.48-2.04-2.4-1.44-3.28l2.18-.9q.86-.36 1.61-.19t1.09.81q.36.7.79 1.38t1.03 1.21 1.41.86 1.93.33q1.26 0 2.2-.41t1.57-1.07.94-1.47.31-1.63q0-1.04-.22-1.89t-.92-1.45-2.01-.94-3.51-.34V37.9q1.82-.02 3.02-.34t1.91-.89.99-1.37.28-1.76q0-2.04-1.14-3.1t-3.04-1.06q-.88 0-1.62.25t-1.33.7-.99 1.05-.6 1.32q-.34.92-.89 1.22t-1.55.14M115.92 40q0 3.78-.81 6.57t-2.24 4.61-3.38 2.71-4.21.89-4.19-.89-3.35-2.71-2.22-4.61-.8-6.57q0-3.8.8-6.58t2.22-4.6 3.35-2.71 4.19-.89 4.21.89 3.38 2.71 2.24 4.6.81 6.58m-5.1 0q0-3.14-.46-5.2t-1.23-3.28-1.77-1.71-2.08-.49q-1.06 0-2.05.49t-1.75 1.71-1.21 3.28-.45 5.2.45 5.2 1.21 3.28 1.75 1.71 2.05.49q1.08 0 2.08-.49t1.77-1.71 1.23-3.28.46-5.2m28.3 0q0 3.78-.81 6.57t-2.24 4.61-3.38 2.71-4.21.89-4.19-.89-3.35-2.71-2.22-4.61-.8-6.57q0-3.8.8-6.58t2.22-4.6 3.35-2.71 4.19-.89 4.21.89 3.38 2.71 2.24 4.6.81 6.58m-5.1 0q0-3.14-.46-5.2t-1.23-3.28-1.77-1.71-2.08-.49q-1.06 0-2.05.49t-1.75 1.71-1.21 3.28-.45 5.2.45 5.2 1.21 3.28 1.75 1.71 2.05.49q1.08 0 2.08-.49t1.77-1.71 1.23-3.28.46-5.2m36.86 7.84-2.62 2.58-6.78-6.78-6.84 6.82-2.62-2.58 6.84-6.86-6.52-6.52 2.6-2.6 6.52 6.52 6.48-6.48 2.64 2.6-6.5 6.5zm23.48 3.08q1.22 0 2.14-.35t1.55-.97.95-1.48.32-1.86q0-2.38-1.32-3.6t-3.64-1.22-3.64 1.22-1.32 3.6q0 1 .32 1.86t.95 1.48 1.55.97 2.14.35m0-21.98q-1.1 0-1.9.34t-1.33.91-.78 1.31-.25 1.56q0 .86.21 1.67t.71 1.44 1.32 1.01 2.02.38 2.02-.38 1.32-1.01.71-1.44.21-1.67q0-.82-.26-1.56t-.78-1.31-1.32-.91-1.9-.34m4.88 10.44q2.64.86 3.9 2.63t1.26 4.33q0 1.92-.73 3.48t-2.05 2.66-3.17 1.7-4.09.6-4.09-.6-3.17-1.7-2.05-2.66-.73-3.48q0-2.56 1.26-4.33t3.9-2.63q-2.1-.88-3.15-2.5t-1.05-3.9q0-1.64.67-3.06t1.87-2.47 2.87-1.64 3.67-.59 3.67.59 2.87 1.64 1.87 2.47.67 3.06q0 2.28-1.05 3.9t-3.15 2.5m28.92.62q0 3.78-.81 6.57t-2.24 4.61-3.38 2.71-4.21.89-4.19-.89-3.35-2.71-2.22-4.61-.8-6.57q0-3.8.8-6.58t2.22-4.6 3.35-2.71 4.19-.89 4.21.89 3.38 2.71 2.24 4.6.81 6.58m-5.1 0q0-3.14-.46-5.2t-1.23-3.28-1.77-1.71-2.08-.49q-1.06 0-2.05.49t-1.75 1.71-1.21 3.28-.45 5.2.45 5.2 1.21 3.28 1.75 1.71 2.05.49q1.08 0 2.08-.49t1.77-1.71 1.23-3.28.46-5.2"/></svg>