<svg xmlns="http://www.w3.org/2000/svg" width="472" height="410" viewBox="0 0 472 410"><rect width="100%" height="100%" fill="#DDDDDD"/><path fill="#999999" d="M102.035 210.605h13.86v-14.9q0-2.11.28-4.66zm20.63 0h5.73v4.51q0 .63-.4 1.08-.41.46-1.17.46h-4.16v11.12h-6.77v-11.12h-19.22q-.78 0-1.38-.49t-.76-1.21l-.82-3.94 21.58-28.82h7.37zm10.27-28.38h31.47v3.37q0 1.51-.32 2.44-.31.93-.63 1.56l-17.26 35.53q-.53 1.11-1.51 1.88t-2.61.77h-5.64l17.61-34.81q.59-1.07 1.18-1.97.58-.89 1.3-1.71h-21.79q-.73 0-1.26-.54-.54-.53-.54-1.26zm52.83 38.3h11.68q1.26 0 2 .71t.74 1.88v4.66h-31.24v-2.58q0-.79.33-1.66.33-.86 1.05-1.56l13.83-13.86q1.73-1.76 3.1-3.37 1.37-1.6 2.29-3.18.91-1.57 1.4-3.2.49-1.62.49-3.41 0-1.64-.48-2.89-.47-1.24-1.34-2.09-.86-.85-2.07-1.28-1.22-.42-2.73-.42-1.38 0-2.57.39-1.18.4-2.09 1.11-.91.7-1.54 1.65-.63.94-.95 2.08-.53 1.45-1.39 1.92-.85.47-2.45.22l-4.1-.72q.47-3.28 1.83-5.75 1.35-2.48 3.39-4.13 2.03-1.65 4.66-2.49 2.63-.83 5.65-.83 3.15 0 5.77.93 2.61.93 4.47 2.63t2.9 4.09q1.04 2.4 1.04 5.32 0 2.53-.74 4.67t-1.99 4.09q-1.24 1.96-2.91 3.78-1.67 1.83-3.5 3.72l-10.27 10.49q1.48-.44 2.95-.68 1.46-.24 2.79-.24m65.77-3.18-4.13 4.07-10.68-10.68-10.77 10.74-4.13-4.06 10.78-10.81-10.27-10.27 4.09-4.09 10.27 10.27 10.21-10.21 4.16 4.1-10.24 10.23zm27.28-6.74h13.86v-14.9q0-2.11.28-4.66zm20.63 0h5.73v4.51q0 .63-.41 1.08-.41.46-1.16.46h-4.16v11.12h-6.77v-11.12h-19.22q-.79 0-1.38-.49-.6-.49-.76-1.21l-.82-3.94 21.58-28.82h7.37zm31.75 11.34h8.19v5.83h-25.2v-5.83h9.23v-26.55q0-1.58.1-3.25l-6.56 5.48q-.56.45-1.11.56-.56.11-1.04.01-.49-.09-.87-.33t-.57-.52l-2.45-3.37 13.89-11.81h6.39zm47.09-16.94q0 5.95-1.27 10.34-1.28 4.4-3.53 7.26-2.25 2.87-5.32 4.27t-6.63 1.4-6.6-1.4-5.28-4.27q-2.24-2.86-3.5-7.26-1.26-4.39-1.26-10.34 0-5.99 1.26-10.37t3.5-7.24q2.24-2.87 5.28-4.27t6.6-1.4 6.63 1.4 5.32 4.27q2.25 2.86 3.53 7.24 1.27 4.38 1.27 10.37m-8.03 0q0-4.95-.72-8.19-.73-3.25-1.94-5.17t-2.79-2.69q-1.57-.78-3.27-.78-1.67 0-3.23.78-1.56.77-2.76 2.69t-1.9 5.17q-.71 3.24-.71 8.19 0 4.94.71 8.19.7 3.24 1.9 5.16t2.76 2.69q1.56.78 3.23.78 1.7 0 3.27-.78 1.58-.77 2.79-2.69t1.94-5.16q.72-3.25.72-8.19"/></svg>