<svg xmlns="http://www.w3.org/2000/svg" width="53" height="20" viewBox="0 0 53 20"><rect width="100%" height="100%" fill="#DDDDDD"/><path fill="#999999" d="m11.77 7.505-.26 1.5q.24-.05.46-.07t.42-.02q.57 0 1.01.17t.73.47q.3.3.44.7.16.4.16.87 0 .57-.21 1.05-.2.48-.56.81-.36.34-.85.53-.49.18-1.08.18-.33 0-.64-.07-.3-.07-.57-.19-.27-.11-.5-.27-.23-.15-.41-.32l.39-.52q.12-.18.31-.18.13 0 .26.08.13.09.29.18.17.1.4.18.22.07.55.07.34 0 .59-.1.26-.12.44-.31.17-.2.26-.47.08-.28.08-.6 0-.58-.34-.92-.34-.33-1.01-.33-.51 0-1.05.19l-.78-.22.61-3.51h3.57v.52q0 .27-.17.43-.17.17-.56.17zm4.7 1.01-.65-.11q.08-.53.29-.92.22-.39.54-.65t.74-.4q.42-.13.89-.13.51 0 .91.14t.69.4q.28.25.43.59.16.34.16.73 0 .35-.08.61t-.22.46q-.15.19-.36.33-.22.13-.49.22.65.21.97.63t.32 1.05q0 .55-.2.96t-.54.7q-.34.28-.79.42-.44.15-.94.15-.55 0-.95-.12-.41-.13-.71-.38-.3-.24-.51-.6-.21-.35-.36-.81l.55-.23q.21-.09.4-.05.19.05.27.2.09.18.2.35t.25.3q.16.13.36.22.2.08.48.08.32 0 .55-.1.24-.11.39-.27.16-.17.24-.37t.08-.4q0-.27-.06-.48-.05-.21-.23-.36-.17-.15-.5-.24-.33-.08-.88-.08v-.88q.46-.01.76-.08.3-.08.47-.23.18-.14.25-.34t.07-.44q0-.51-.28-.77-.29-.27-.76-.27-.22 0-.41.06-.18.06-.33.18-.15.11-.25.26t-.15.33q-.08.23-.22.31-.14.07-.39.03m12.3 3.44-.65.65-1.7-1.7-1.71 1.71-.65-.65 1.71-1.71-1.63-1.63.65-.65 1.63 1.63 1.62-1.62.66.65-1.63 1.63zm6.02.51h1.86q.2 0 .31.11.12.11.12.3v.74h-4.96v-.41q0-.13.05-.26.06-.14.17-.25l2.2-2.2q.27-.28.49-.54.22-.25.36-.5.15-.25.22-.51.08-.25.08-.54 0-.26-.07-.46-.08-.2-.22-.33-.13-.13-.33-.2-.19-.07-.43-.07-.22 0-.41.06-.18.06-.33.18-.14.11-.24.26t-.15.33q-.09.23-.22.31-.14.07-.39.03l-.65-.11q.07-.53.29-.92.21-.39.53-.65.33-.26.74-.4.42-.13.9-.13.5 0 .92.15.41.14.71.41.29.27.46.66.16.38.16.84 0 .4-.12.74-.11.34-.31.65t-.46.6q-.27.29-.56.59l-1.63 1.66q.24-.06.47-.1t.44-.04m8.3-2.47q0 .95-.2 1.65-.2.69-.56 1.15t-.85.68q-.48.22-1.05.22-.56 0-1.05-.22-.48-.22-.83-.68-.36-.46-.56-1.15-.2-.7-.2-1.65t.2-1.64q.2-.7.56-1.15.35-.46.83-.68.49-.22 1.05-.22.57 0 1.05.22.49.22.85.68.36.45.56 1.15.2.69.2 1.64m-1.27 0q0-.78-.12-1.3-.11-.51-.31-.82-.19-.3-.44-.42-.25-.13-.52-.13-.26 0-.51.13-.25.12-.44.42-.19.31-.3.82-.11.52-.11 1.3 0 .79.11 1.31.11.51.3.81.19.31.44.43t.51.12q.27 0 .52-.12t.44-.43q.2-.3.31-.81.12-.52.12-1.31"/></svg>