<svg xmlns="http://www.w3.org/2000/svg" width="670" height="445" viewBox="0 0 670 445"><rect width="100%" height="100%" fill="#DDDDDD"/><path fill="#999999" d="m175.62 190.325-19.09 23.37-2.22 2.75q1.87-.93 4.02-1.44 2.16-.51 4.65-.51 3.65 0 7.1 1.2t6.08 3.62q2.62 2.43 4.22 6.03 1.61 3.61 1.61 8.42 0 4.49-1.65 8.43t-4.63 6.87q-2.98 2.94-7.19 4.63-4.2 1.69-9.27 1.69-5.17 0-9.26-1.64-4.09-1.65-6.99-4.61-2.89-2.96-4.42-7.12-1.54-4.16-1.54-9.23 0-4.54 1.85-9.33 1.84-4.78 5.72-9.94l15.35-20.61q.8-1.06 2.33-1.82 1.54-.76 3.54-.76zm-16.6 56.07q2.63 0 4.83-.89t3.78-2.49 2.47-3.76.89-4.69q0-2.76-.84-4.97-.85-2.2-2.4-3.73-1.56-1.54-3.74-2.34t-4.81-.8q-2.62 0-4.76.89t-3.65 2.47-2.36 3.74q-.84 2.15-.84 4.65 0 2.67.73 4.87.74 2.2 2.18 3.76 1.45 1.56 3.58 2.43 2.14.86 4.94.86m30.04-56.07h44.46v4.76q0 2.14-.45 3.45-.44 1.32-.89 2.21l-24.38 50.19q-.76 1.56-2.14 2.65t-3.69 1.09H194l24.88-49.17q.84-1.52 1.67-2.78.82-1.27 1.84-2.43H191.6q-1.03 0-1.78-.76-.76-.75-.76-1.78zm96.88 32.18q0 8.41-1.8 14.61-1.81 6.21-4.99 10.26t-7.52 6.03-9.37 1.98q-5.02 0-9.32-1.98-4.29-1.98-7.45-6.03t-4.94-10.26q-1.78-6.2-1.78-14.61 0-8.46 1.78-14.64 1.78-6.19 4.94-10.24t7.45-6.03q4.3-1.98 9.32-1.98 5.03 0 9.37 1.98t7.52 6.03 4.99 10.24q1.8 6.18 1.8 14.64m-11.35 0q0-6.99-1.02-11.57-1.03-4.59-2.74-7.3-1.71-2.72-3.94-3.81-2.22-1.09-4.63-1.09-2.35 0-4.56 1.09-2.2 1.09-3.89 3.81-1.69 2.71-2.69 7.3-1 4.58-1 11.57 0 6.98 1 11.57 1 4.58 2.69 7.29 1.69 2.72 3.89 3.81 2.21 1.09 4.56 1.09 2.41 0 4.63-1.09 2.23-1.09 3.94-3.81 1.71-2.71 2.74-7.29 1.02-4.59 1.02-11.57m82.01 17.44-5.83 5.74-15.08-15.08-15.22 15.17-5.83-5.74 15.22-15.26-14.51-14.51 5.79-5.79 14.5 14.51 14.42-14.42 5.88 5.79-14.47 14.46zm38.54-9.52h19.58v-21.05q0-2.98.4-6.59zm29.15 0h8.1v6.36q0 .89-.58 1.54-.58.64-1.65.64h-5.87v15.71h-9.57v-15.71h-27.14q-1.12 0-1.96-.69-.85-.69-1.07-1.71l-1.16-5.56 30.49-40.72h10.41zm22.47 0h19.58v-21.05q0-2.98.4-6.59zm29.15 0h8.1v6.36q0 .89-.58 1.54-.58.64-1.65.64h-5.87v15.71h-9.57v-15.71H439.2q-1.12 0-1.96-.69-.85-.69-1.07-1.71l-1.16-5.56 30.49-40.72h10.41zm30.7-30.13-2.27 13.4q2.14-.45 4.1-.65t3.78-.2q5.07 0 8.94 1.51 3.88 1.52 6.5 4.19 2.63 2.67 3.96 6.25 1.34 3.58 1.34 7.72 0 5.12-1.8 9.34-1.81 4.23-5.01 7.24-3.21 3-7.59 4.65-4.38 1.64-9.54 1.64-3.03 0-5.74-.62-2.72-.62-5.1-1.67t-4.4-2.4q-2.03-1.36-3.63-2.87l3.38-4.68q1.07-1.51 2.8-1.51 1.12 0 2.27.71 1.16.72 2.65 1.56 1.49.85 3.52 1.56 2.02.71 4.87.71 3.03 0 5.34-.98t3.85-2.74q1.53-1.75 2.31-4.18.78-2.42.78-5.27 0-5.25-3.05-8.21t-9.01-2.96q-4.58 0-9.39 1.69l-6.85-1.96 5.34-31.24h31.77v4.68q0 2.35-1.47 3.82-1.46 1.47-4.98 1.47z"/></svg>