<svg xmlns="http://www.w3.org/2000/svg" width="68" height="27" viewBox="0 0 68 27"><rect width="100%" height="100%" fill="#DDDDDD"/><path fill="#999999" d="m18.115 8.8-2.79 3.41-.32.41q.27-.14.59-.21.31-.08.68-.08.53 0 1.03.18.51.17.89.53.38.35.62.88.23.52.23 1.22 0 .66-.24 1.24-.24.57-.67 1-.44.43-1.05.68-.62.24-1.36.24-.75 0-1.35-.24t-1.02-.67-.65-1.04q-.22-.61-.22-1.35 0-.66.27-1.36t.83-1.45l2.24-3.01q.12-.16.35-.27.22-.11.51-.11zm-2.42 8.19q.38 0 .7-.13t.56-.36q.23-.24.36-.55.13-.32.13-.69 0-.4-.13-.72-.12-.32-.35-.55-.23-.22-.54-.34-.32-.12-.71-.12-.38 0-.69.13t-.53.36q-.23.23-.35.55-.12.31-.12.68 0 .39.1.71.11.32.32.55t.53.35q.31.13.72.13m7.55.06q.4 0 .7-.11.3-.12.5-.32.21-.2.31-.48t.1-.61q0-.77-.43-1.17-.43-.39-1.18-.39t-1.18.39q-.43.4-.43 1.17 0 .33.1.61.11.28.31.48.21.2.51.32.29.11.69.11m0-7.14q-.36 0-.62.11t-.43.29q-.17.19-.25.43t-.08.5q0 .28.06.55.07.26.24.47.16.2.42.32.27.13.66.13t.66-.13q.26-.12.43-.32.16-.21.23-.47.07-.27.07-.55 0-.26-.09-.5-.08-.24-.25-.43-.17-.18-.43-.29t-.62-.11m1.59 3.39q.86.28 1.26.85.41.58.41 1.41 0 .62-.23 1.13-.24.51-.67.87-.43.35-1.03.55-.6.19-1.33.19t-1.33-.19q-.6-.2-1.03-.55-.43-.36-.66-.87-.24-.51-.24-1.13 0-.83.41-1.41.41-.57 1.26-.85-.68-.29-1.02-.81-.34-.53-.34-1.27 0-.53.22-1 .22-.46.61-.8t.93-.53 1.19-.19 1.19.19q.55.19.94.53t.6.8q.22.47.22 1 0 .74-.34 1.27-.34.52-1.02.81m12.18 2.75-.85.84-2.21-2.21-2.22 2.22-.85-.84 2.22-2.23-2.12-2.12.85-.84 2.12 2.12 2.1-2.11.86.85-2.11 2.11zm7.82.65h2.42q.26 0 .41.15t.15.39v.96h-6.45v-.53q0-.17.07-.34.07-.18.22-.33l2.85-2.86q.36-.36.64-.69.29-.33.47-.66.19-.32.29-.66.1-.33.1-.7 0-.34-.09-.6-.1-.25-.28-.43t-.43-.26q-.25-.09-.56-.09-.29 0-.53.08t-.43.23q-.19.14-.32.34-.13.19-.2.43-.11.3-.28.39-.18.1-.51.05l-.84-.15q.09-.68.37-1.19t.7-.85.96-.51q.55-.17 1.17-.17.65 0 1.19.19t.92.54q.39.35.6.85.22.49.22 1.09 0 .52-.16.97-.15.44-.41.84-.25.4-.6.78-.34.38-.72.77l-2.12 2.16q.31-.09.61-.14t.57-.05m4.18-7.9h6.5v.7q0 .31-.07.5-.06.19-.13.32l-3.56 7.33q-.11.23-.31.39t-.54.16h-1.16l3.63-7.18q.12-.22.24-.41.12-.18.27-.35h-4.5q-.15 0-.26-.11t-.11-.26z"/></svg>