<svg xmlns="http://www.w3.org/2000/svg" width="80" height="27" viewBox="0 0 80 27"><rect width="100%" height="100%" fill="#DDDDDD"/><path fill="#999999" d="M20.325 17.32q.42 0 .75-.12.32-.12.54-.34t.33-.52.11-.65q0-.83-.46-1.26t-1.27-.43-1.28.43q-.46.43-.46 1.26 0 .35.11.65.12.3.34.52t.54.34.75.12m0-7.69q-.39 0-.67.12t-.46.32q-.19.2-.28.45-.08.26-.08.55 0 .3.07.58.07.29.25.51.17.22.46.35t.71.13.7-.13q.29-.13.47-.35.17-.22.25-.51.07-.28.07-.58 0-.29-.09-.55-.09-.25-.28-.45-.18-.2-.46-.32t-.66-.12m1.71 3.65q.92.3 1.36.92t.44 1.52q0 .67-.25 1.22-.26.54-.72.93-.46.38-1.11.59t-1.43.21q-.79 0-1.43-.21-.65-.21-1.11-.59-.47-.39-.72-.93-.26-.55-.26-1.22 0-.9.44-1.52.45-.62 1.37-.92-.74-.31-1.1-.87-.37-.57-.37-1.37 0-.57.23-1.07.24-.5.66-.86.42-.37 1-.58.59-.2 1.29-.2t1.28.2q.59.21 1.01.58.42.36.65.86.24.5.24 1.07 0 .8-.37 1.37-.37.56-1.1.87m10.12.22q0 1.32-.29 2.3-.28.97-.78 1.61t-1.18.95q-.69.31-1.48.31t-1.46-.31q-.68-.31-1.18-.95-.49-.64-.77-1.61-.28-.98-.28-2.3 0-1.33.28-2.3.28-.98.77-1.61.5-.64 1.18-.95.67-.31 1.46-.31t1.48.31q.68.31 1.18.95.5.63.78 1.61.29.97.29 2.3m-1.79 0q0-1.1-.16-1.82t-.43-1.15-.62-.6-.73-.17q-.37 0-.71.17-.35.17-.62.6-.26.43-.42 1.15t-.16 1.82.16 1.82.42 1.15q.27.42.62.6.34.17.71.17.38 0 .73-.17.35-.18.62-.6.27-.43.43-1.15t.16-1.82m12.9 2.74-.91.91-2.38-2.38-2.39 2.39-.92-.9 2.4-2.4-2.29-2.29.91-.91 2.29 2.29 2.26-2.27.93.91-2.28 2.27zm8.43.71h2.6q.28 0 .44.16.17.16.17.41v1.04h-6.95v-.57q0-.18.08-.37.07-.19.23-.35l3.07-3.08q.39-.39.69-.75.31-.35.51-.7t.31-.71q.11-.37.11-.76 0-.37-.1-.64-.11-.28-.3-.47t-.46-.28q-.27-.1-.61-.1-.31 0-.57.09t-.46.24q-.21.16-.35.37t-.21.46q-.12.33-.31.43-.18.11-.54.05l-.91-.16q.1-.73.4-1.28.31-.55.76-.92.45-.36 1.03-.55.59-.18 1.26-.18.7 0 1.28.2.58.21.99.59.42.38.65.91t.23 1.18q0 .56-.16 1.04-.17.47-.45.91-.27.43-.64.84-.37.4-.78.82l-2.28 2.33q.33-.1.65-.15.33-.05.62-.05m4.5-8.51h7v.75q0 .33-.07.54t-.14.35l-3.84 7.89q-.12.25-.34.42-.21.17-.58.17h-1.25l3.91-7.74q.14-.23.27-.43.12-.2.29-.38h-4.85q-.16 0-.28-.12t-.12-.28z"/></svg>