<svg xmlns="http://www.w3.org/2000/svg" width="94" height="94" viewBox="0 0 94 94"><rect width="100%" height="100%" fill="#DDDDDD"/><path fill="#999999" d="M20.885 44.615q0 1.03.54 1.57.53.54 1.5.54.51 0 .91-.17.4-.16.67-.44.28-.28.42-.66t.14-.83q0-.5-.16-.89-.15-.4-.43-.67t-.67-.42q-.38-.14-.84-.14-.48 0-.86.16-.38.15-.66.43-.27.29-.41.67-.15.39-.15.85m-1.02 8.6 3.81-4.77q.15-.18.27-.35.13-.17.25-.34-.42.27-.93.42-.51.14-1.08.14-.63 0-1.25-.23-.61-.22-1.08-.66-.48-.45-.77-1.11-.3-.66-.3-1.54 0-.83.31-1.55t.86-1.26q.55-.55 1.32-.86.78-.32 1.71-.32.95 0 1.7.3t1.28.83q.53.54.82 1.29.28.74.28 1.64 0 .57-.09 1.08-.1.51-.28.98t-.43.92q-.26.45-.57.89l-2.82 4.02q-.14.2-.43.34t-.66.14zm10.39-4.63h3.74v-4.02q0-.57.08-1.26zm5.57 0h1.55v1.21q0 .17-.11.3-.12.12-.32.12h-1.12v3h-1.83v-3h-5.18q-.22 0-.38-.13t-.2-.33l-.22-1.06 5.82-7.78h1.99zm15.05 1.82-1.11 1.09-2.88-2.88-2.91 2.9-1.11-1.1 2.9-2.91-2.77-2.77 1.11-1.11 2.77 2.77 2.75-2.75 1.12 1.1-2.76 2.77zm7.86-5.79q0 1.03.53 1.57t1.51.54q.51 0 .91-.17.4-.16.67-.44t.41-.66.14-.83q0-.5-.15-.89-.16-.4-.44-.67t-.66-.42q-.39-.14-.85-.14-.48 0-.86.16-.38.15-.65.43-.27.29-.42.67-.14.39-.14.85m-1.03 8.6 3.81-4.77q.15-.18.28-.35l.24-.34q-.42.27-.93.42-.51.14-1.07.14-.64 0-1.25-.23-.61-.22-1.09-.66-.48-.45-.77-1.11t-.29-1.54q0-.83.3-1.55.31-.72.86-1.26.55-.55 1.33-.86.77-.32 1.71-.32t1.69.3 1.28.83q.54.54.82 1.29.29.74.29 1.64 0 .57-.1 1.08t-.28.98-.43.92q-.26.45-.57.89l-2.81 4.02q-.15.2-.44.34t-.65.14zm10.39-4.63h3.74v-4.02q0-.57.08-1.26zm5.57 0h1.55v1.21q0 .17-.11.3-.11.12-.32.12h-1.12v3h-1.83v-3h-5.18q-.21 0-.38-.13-.16-.13-.2-.33l-.22-1.06 5.82-7.78h1.99z"/></svg>