<svg xmlns="http://www.w3.org/2000/svg" width="95" height="18" viewBox="0 0 95 18"><rect width="100%" height="100%" fill="#DDDDDD"/><path fill="#999999" d="M33.735 7.705q0 .54.28.83.28.28.8.28.27 0 .48-.08.21-.09.35-.24.15-.15.22-.35.08-.2.08-.44 0-.26-.08-.47t-.23-.35q-.15-.15-.36-.22-.2-.08-.44-.08-.26 0-.46.08-.2.09-.35.23-.14.15-.22.36-.07.2-.07.45m-.55 4.55 2.02-2.52.15-.19q.07-.09.13-.18-.23.14-.5.22-.27.07-.56.07-.34 0-.67-.11-.32-.12-.57-.36-.25-.23-.41-.58-.15-.35-.15-.82 0-.44.16-.82t.45-.67q.3-.29.7-.45.41-.17.91-.17t.9.16.68.44.43.68q.15.39.15.87 0 .3-.05.57t-.15.52q-.09.25-.23.49-.13.24-.3.47l-1.49 2.12q-.08.11-.23.19-.15.07-.35.07zm6.34-5.5-.23 1.36q.22-.05.41-.07.2-.02.39-.02.51 0 .9.15.39.16.66.43.26.27.4.63.13.36.13.78 0 .52-.18.94-.18.43-.51.74-.32.3-.76.47-.45.16-.97.16-.3 0-.58-.06-.27-.06-.51-.17t-.45-.24q-.2-.14-.37-.29l.35-.48q.1-.15.28-.15.11 0 .23.07.12.08.27.16.15.09.35.16.21.07.5.07.3 0 .54-.1.23-.1.38-.28.16-.17.24-.42.08-.24.08-.53 0-.53-.31-.83t-.91-.3q-.47 0-.95.17l-.69-.2.54-3.16h3.21v.48q0 .23-.15.38t-.5.15zm10.08 4.01-.59.58-1.52-1.52-1.54 1.53-.59-.58 1.54-1.54-1.47-1.47.59-.59 1.46 1.47 1.46-1.46.6.59-1.47 1.46zm6.16.66h1.17v.83h-3.6v-.83h1.32v-3.8q0-.22.02-.46l-.94.78q-.08.07-.16.08-.08.02-.15 0-.07-.01-.12-.04-.06-.04-.08-.08l-.35-.48 1.98-1.69h.91zm4.35.03q.27 0 .48-.08.21-.07.35-.21t.21-.34q.07-.19.07-.42 0-.53-.29-.81-.3-.27-.82-.27t-.82.27q-.3.28-.3.81 0 .23.07.42.08.2.22.34t.35.21q.2.08.48.08m0-4.94q-.25 0-.43.07-.18.08-.3.21t-.18.29q-.05.17-.05.35 0 .2.05.38.04.18.16.32.11.15.29.23.19.09.46.09t.45-.09q.19-.08.3-.23.11-.14.16-.32t.05-.38q0-.18-.06-.35-.06-.16-.18-.29t-.3-.21q-.18-.07-.42-.07m1.1 2.35q.59.19.87.59.29.4.29.97 0 .43-.17.79-.16.35-.46.59-.3.25-.71.39-.42.13-.92.13-.51 0-.92-.13-.42-.14-.72-.39-.29-.24-.46-.59-.16-.36-.16-.79 0-.57.28-.97.29-.4.88-.59-.47-.2-.71-.57-.24-.36-.24-.87 0-.37.15-.69.16-.32.43-.56.27-.23.64-.37.38-.13.83-.13t.82.13q.38.14.65.37.27.24.42.56t.15.69q0 .51-.24.87-.23.37-.7.57"/></svg>